# xmcd
#
# Track frame offsets: 
#        150
#        19202
#        33268
#        62455
#        92028
#        114024
#        148661
#        177981
#        196053
#        222497
#
# Disc length: 3393 seconds
#
# Revision: 0
# Processed by: cddbd v1.5.2PL0 Copyright (c) Steve Scherf et al.
# Submitted via: ExactAudioCopy v1.3
#
DISCID=820d3f0a
DTITLE=Raphael Wressnig and Enrico Crivellaro Organ Trio - Mosquito Bite
DYEAR=2006
DGENRE=Blues, Jazz
TTITLE0=Speedin'
TTITLE1=Mosquito Bite
TTITLE2=Wally's March
TTITLE3=Boom Bello
TTITLE4=West 43rd St. Blues
TTITLE5=Cherokee
TTITLE6=Frankie Lee Goes Uptown
TTITLE7=Banana Boogaloo
TTITLE8=A-Level
TTITLE9=Sugar
EXTD=
EXTT0=
EXTT1=
EXTT2=
EXTT3=
EXTT4=
EXTT5=
EXTT6=
EXTT7=
EXTT8=
EXTT9=
PLAYORDER=
